<svg viewBox="0 0 100 100" fill="none" xmlns="http://www.w3.org/2000/svg">
  <!-- Lightbulb outline -->
  <path
    d="M50 10 C35 10 25 20 25 35 C25 45 30 52 35 58 L35 75 L65 75 L65 58 C70 52 75 45 75 35 C75 20 65 10 50 10 Z"
    fill="#FF6B35"
    stroke="#FF6B35"
    stroke-width="2"
  />
  
  <!-- Brain pattern inside bulb -->
  <path
    d="M45 25 Q40 28 42 32 Q44 35 48 34 Q50 33 50 30 Q50 27 48 25 Q46 23 45 25 Z"
    fill="#FFF"
    opacity="0.8"
  />
  <path
    d="M55 25 Q52 27 53 30 Q54 33 57 32 Q60 30 59 27 Q58 24 55 25 Z"
    fill="#FFF"
    opacity="0.8"
  />
  <path
    d="M42 38 Q38 40 39 44 Q40 48 44 47 Q48 46 47 42 Q46 38 42 38 Z"
    fill="#FFF"
    opacity="0.7"
  />
  <path
    d="M58 38 Q54 40 55 44 Q56 48 60 47 Q64 46 63 42 Q62 38 58 38 Z"
    fill="#FFF"
    opacity="0.7"
  />
  <path
    d="M48 45 Q45 47 46 50 Q47 53 51 52 Q55 51 54 48 Q53 45 48 45 Z"
    fill="#FFF"
    opacity="0.6"
  />
  
  <!-- Base/screw threads -->
  <rect x="40" y="75" width="20" height="3" fill="#E85D2D" />
  <rect x="40" y="79" width="20" height="3" fill="#E85D2D" />
  <rect x="40" y="83" width="20" height="3" fill="#E85D2D" />
  
  <!-- Bottom cap -->
  <rect x="38" y="87" width="24" height="6" rx="2" fill="#D64F1F" />
</svg>